<!DOCTYPE svg PUBLIC "-//W3C//DTD SVG 1.1//EN" "http://www.w3.org/Graphics/SVG/1.1/DTD/svg11.dtd">
<!-- Uploaded to: SVG Repo, www.svgrepo.com, Transformed by: SVG Repo Mixer Tools -->
<svg fill="#DADADA" height="800px" width="800px" version="1.1" id="Capa_1" xmlns="http://www.w3.org/2000/svg" xmlns:xlink="http://www.w3.org/1999/xlink" viewBox="0 0 490 490" xml:space="preserve">
<g id="SVGRepo_bgCarrier" stroke-width="0"/>
<g id="SVGRepo_tracerCarrier" stroke-linecap="round" stroke-linejoin="round"/>
<g id="SVGRepo_iconCarrier"> <path d="M404.465,23.677h-53.131V0H330.03v23.677h-74.378V0h-21.304v23.677h-74.373V0h-21.304v23.677H85.535 c-5.883,0-10.652,4.769-10.652,10.652v445.019c0,5.883,4.769,10.652,10.652,10.652h318.93c5.883,0,10.652-4.769,10.652-10.652 V34.329C415.117,28.446,410.348,23.677,404.465,23.677z M138.671,44.981v23.681h21.304V44.981h74.373v23.681h21.304V44.981h74.378 v23.681h21.304V44.981h42.479v74.914H96.187V44.981H138.671z M96.187,468.696V141.199h297.626v327.497H96.187z"/> </g>
</svg>