<!DOCTYPE svg PUBLIC "-//W3C//DTD SVG 1.1//EN" "http://www.w3.org/Graphics/SVG/1.1/DTD/svg11.dtd">
<!-- Uploaded to: SVG Repo, www.svgrepo.com, Transformed by: SVG Repo Mixer Tools -->
<svg fill="#b5b5b5" height="800px" width="800px" version="1.1" id="Capa_1" xmlns="http://www.w3.org/2000/svg" xmlns:xlink="http://www.w3.org/1999/xlink" viewBox="0 0 490 490" xml:space="preserve">
<g id="SVGRepo_bgCarrier" stroke-width="0"/>
<g id="SVGRepo_tracerCarrier" stroke-linecap="round" stroke-linejoin="round"/>
<g id="SVGRepo_iconCarrier"> <g> <path d="M143.984,315.671c24.551,14.172,52.441,21.666,80.656,21.666c0,0,0,0,0.005,0c28.44,0,56.534-7.515,81.243-21.728 c24.724-14.223,45.278-34.715,59.444-59.25c14.161-24.535,21.631-52.573,21.59-81.1c-0.087-57.749-31.086-111.486-80.901-140.247 c-49.273-28.431-112.585-28.25-161.78,0c-0.041,0.022-0.084,0.038-0.124,0.061c-24.713,14.224-45.271,34.704-59.444,59.25 c-14.162,24.546-21.631,52.583-21.59,81.1C63.17,233.172,94.169,286.908,143.984,315.671z M154.439,297.558 c-16.375-9.455-23.255-36.955-17.056-73.212l88.976,51.367c-19.501,16.331-39.213,25.847-55.946,25.847 C164.405,301.56,159.029,300.212,154.439,297.558z M276.184,216.965c-10.348,16.547-21.899,31.364-33.88,43.803l-49.49-28.571 l-50.522-29.169c4.617-16.102,11.552-33.385,21.056-51.21L276.184,216.965z M173.817,133.714 c10.348-16.547,21.901-31.363,33.883-43.802l36.566,21.11l63.355,36.577c-4.787,16.786-11.871,34.15-20.97,51.259L173.817,133.714z M224.646,316.426h-0.005c-7.111,0-14.196-0.565-21.196-1.642c13.893-6.102,28.149-15.663,41.988-28.06l33.042,19.075 C261.424,312.792,243.119,316.426,224.646,316.426z M300.561,294.401l-39.672-22.903c11.881-12.797,23.203-27.629,33.426-44.064 l47.341,27.333C330.864,270.571,316.861,284.089,300.561,294.401z M335.009,87.098c15.824,19.828,26.22,43.784,29.706,69.313 l-33.045-19.078c1.966-9.389,3.243-18.563,3.772-27.39C335.929,101.828,335.774,94.197,335.009,87.098z M365.894,181.243 c-0.781,19.266-5.488,38.154-13.782,55.409l-47.342-27.333c9.035-16.907,16.26-34.129,21.451-50.982L365.894,181.243z M295.566,53.124c13.723,7.923,20.65,28.169,19.007,55.563c-0.342,5.703-1.034,11.579-2.06,17.585l-88.868-51.305 c19.5-16.33,39.212-25.846,55.943-25.846C285.601,49.122,290.976,50.47,295.566,53.124z M246.21,36.054 c-13.782,6.108-27.914,15.61-41.637,27.903l-33.041-19.075C195.054,35.238,221.096,32.327,246.21,36.054z M149.445,56.28 l39.671,22.903c-11.882,12.797-23.205,27.628-33.43,44.063l-47.329-27.325C119.149,80.099,133.152,66.582,149.445,56.28z M97.899,114.032l47.333,27.328c-9.205,17.211-16.37,34.402-21.473,50.97l-39.647-22.89 C84.893,150.174,89.599,131.286,97.899,114.032z M118.315,213.337c-3.813,18.262-4.9,35.352-3.228,50.357 c-15.874-19.85-26.303-43.846-29.795-69.421L118.315,213.337z"/> <path d="M326.233,0l-10.455,18.113c123.464,75.489,97.508,201.993,66.449,247.998c-30.69,45.459-106.565,132.646-247.998,66.447 l-10.455,18.114c20.625,11.906,42.751,19.937,65.514,24.029v33.096c-32.622,2.43-99.887,11.017-99.887,40.463 c0,32.949,85.236,41.74,135.603,41.74c50.366,0,135.607-8.791,135.607-41.74c0-29.446-67.265-38.033-99.887-40.463V374.61 c5.577-1.009,85.622-9.983,139.615-98.044C426.35,234.141,468.303,89.096,326.233,0z M339.353,448.271 c-5.948,7.862-47.034,20.819-114.35,20.819c-67.316,0-108.397-12.956-114.345-20.819c4.774-6.074,34.006-17.367,89.621-20.216 c5.56-0.285,9.919-4.881,9.919-10.445V377.34c4.814,0.349,9.644,0.542,14.484,0.542c5.037,0,10.084-0.212,15.132-0.592v40.32 c0,5.565,4.36,10.16,9.919,10.445C305.347,430.904,334.579,442.196,339.353,448.271z"/> </g> </g>
</svg>