<!DOCTYPE svg PUBLIC "-//W3C//DTD SVG 1.1//EN" "http://www.w3.org/Graphics/SVG/1.1/DTD/svg11.dtd">
<!-- Uploaded to: SVG Repo, www.svgrepo.com, Transformed by: SVG Repo Mixer Tools -->
<svg fill="#DADADA" version="1.1" id="Capa_1" xmlns="http://www.w3.org/2000/svg" xmlns:xlink="http://www.w3.org/1999/xlink" viewBox="0 0 490 490" xml:space="preserve" width="800px" height="800px" stroke="#DADADA">
<g id="SVGRepo_bgCarrier" stroke-width="0"/>
<g id="SVGRepo_tracerCarrier" stroke-linecap="round" stroke-linejoin="round"/>
<g id="SVGRepo_iconCarrier"> <g> <path d="M430.196,0H10.425C4.663,0,0,4.668,0,10.425v469.149C0,485.331,4.663,490,10.425,490h419.771 c5.762,0,10.426-4.669,10.426-10.426V10.425C440.622,4.668,435.958,0,430.196,0z M419.77,469.149H20.851V20.851H419.77V469.149z"/> <rect x="469.149" y="10.425" width="20.851" height="52.128"/> <rect x="469.149" y="114.681" width="20.851" height="52.128"/> <rect x="469.149" y="218.936" width="20.851" height="52.128"/> <rect x="469.149" y="323.191" width="20.851" height="52.128"/> <rect x="469.149" y="427.447" width="20.851" height="52.127"/> <rect x="98.779" y="130.319" width="243.065" height="20.851"/> </g> </g>
</svg>