<!DOCTYPE svg PUBLIC "-//W3C//DTD SVG 1.1//EN" "http://www.w3.org/Graphics/SVG/1.1/DTD/svg11.dtd">
<!-- Uploaded to: SVG Repo, www.svgrepo.com, Transformed by: SVG Repo Mixer Tools -->
<svg fill="#DADADA" height="800px" width="800px" version="1.1" id="Capa_1" xmlns="http://www.w3.org/2000/svg" xmlns:xlink="http://www.w3.org/1999/xlink" viewBox="0 0 490 490" xml:space="preserve" stroke="#DADADA">
<g id="SVGRepo_bgCarrier" stroke-width="0"/>
<g id="SVGRepo_tracerCarrier" stroke-linecap="round" stroke-linejoin="round"/>
<g id="SVGRepo_iconCarrier"> <g> <path d="M103.531,233.426c-8.152-7.476-18.678,0.438-17.795,7.371v160.422c0,5.757,4.667,10.426,10.425,10.426H256.56 c8.931,0,14.109-11.059,7.37-17.798L103.531,233.426z M106.585,390.793V265.967l124.808,124.826H106.585z"/> <path d="M486.915,472.191L17.795,3.009C12.887-2.352,0.386-0.933,0,10.38v469.183c0,5.758,4.667,10.426,10.425,10.426h469.12 C486.766,490.369,494.42,480.658,486.915,472.191z M20.85,469.137V35.55l53.02,53.027l-14.742,14.744l14.742,14.743l14.742-14.743 l63.445,63.453l-14.742,14.744l14.742,14.742l14.742-14.743l63.445,63.454l-14.742,14.744l14.742,14.743l14.742-14.743 l63.445,63.454l-14.742,14.744l14.742,14.743l14.742-14.743l63.445,63.453l-14.742,14.744l14.742,14.743l14.742-14.743 l53.02,53.027H20.85z"/> </g> </g>
</svg>