<!DOCTYPE svg PUBLIC "-//W3C//DTD SVG 1.1//EN" "http://www.w3.org/Graphics/SVG/1.1/DTD/svg11.dtd">
<!-- Uploaded to: SVG Repo, www.svgrepo.com, Transformed by: SVG Repo Mixer Tools -->
<svg fill="#b5b5b5" height="800px" width="800px" version="1.1" id="Capa_1" xmlns="http://www.w3.org/2000/svg" xmlns:xlink="http://www.w3.org/1999/xlink" viewBox="0 0 490 490" xml:space="preserve" stroke="#b5b5b5">
<g id="SVGRepo_bgCarrier" stroke-width="0"/>
<g id="SVGRepo_tracerCarrier" stroke-linecap="round" stroke-linejoin="round"/>
<g id="SVGRepo_iconCarrier"> <path d="M398.952,57.97L301.647,1.79c-6.083-3.311-11.234-2.023-14.232,3.815L182.518,187.288h-22.218V32.722h-20.834v154.567 H85.838v20.834h15.366v271.46c0,5.753,4.665,10.417,10.417,10.417h240.611c5.752,0,10.417-4.664,10.417-10.417v-271.46h15.361 v-20.834h-41.691l66.447-115.086C405.639,67.218,403.936,60.849,398.952,57.97z M341.815,469.166H122.038V208.123h219.777V469.166z M361.645,101.752l-45.222-26.111l-10.417,18.047l45.221,26.11l-17.865,30.944l-27.143-15.671l-10.417,18.048l27.141,15.67 l-10.681,18.5H206.576l93.678-162.243l79.256,45.764L361.645,101.752z"/> </g>
</svg>