<svg version="1.1" id="Layer_1" xmlns="http://www.w3.org/2000/svg" xmlns:xlink="http://www.w3.org/1999/xlink" x="0px" y="0px" viewBox="0 0 500 500" style="width: 166px;" xml:space="preserve" data-imageid="science-1-42" imageName="Science 1" class="illustrations_image">
<style type="text/css">
	.st0_science-1-42{fill:#093F68;}
	.st1_science-1-42{fill:#68E1FD;}
	.st2_science-1-42{fill:#FFFFFF;}
	.st3_science-1-42{fill:#FFBC0E;}
	.st4_science-1-42{fill:#F56132;}
	.st5_science-1-42{fill:#70CC40;}
	.st6_science-1-42{fill:#DFEAEF;}
	.st7_science-1-42{fill:#FFC9B0;}
	.st8_science-1-42{fill:#725858;}
</style>
<g id="light_science-1-42">
	<circle class="st0_science-1-42" cx="348.6" cy="300.4" r="32.5"/>
	<path class="st0_science-1-42" d="M348.6,334.3c-18.8,0-34-15.2-34-34s15.2-34,34-34s34,15.2,34,34l0,0c0,18.7-15.1,34-33.8,34&#10;&#9;&#9;C348.7,334.3,348.7,334.3,348.6,334.3z M348.6,269.5c-17,0-30.9,13.8-30.9,30.9s13.8,30.9,30.9,30.9s30.9-13.8,30.9-30.9&#10;&#9;&#9;c0,0,0,0,0,0l0,0C379.5,283.3,365.7,269.5,348.6,269.5C348.6,269.5,348.6,269.5,348.6,269.5z"/>
	<path class="st1_science-1-42 targetColor" d="M422.5,165.6c0-40.3-32.6-72.9-72.8-72.9c0,0-0.1,0-0.1,0c-1.7,0-3.5,0.1-5.1,0.2c-36,2.5-65.2,31.7-67.6,67.7&#10;&#9;&#9;c-1.2,17.6,3.9,35,14.6,49.1c14.1,18.6,21.8,41.3,21.8,64.7h72.6c0-23,7.1-45.7,21.2-63.9C417.1,197.6,422.6,181.9,422.5,165.6z" style="fill: rgb(253, 220, 104);"/>
	<path class="st0_science-1-42" d="M386,275.8h-72.7c-0.8,0-1.5-0.7-1.5-1.5c0,0,0,0,0,0c-0.1-23-7.6-45.4-21.5-63.7&#10;&#9;&#9;c-24.8-32.8-18.4-79.5,14.4-104.3s79.5-18.4,104.3,14.4c9.8,12.9,15.1,28.7,15.1,44.9c0.1,16.6-5.4,32.7-15.7,45.7&#10;&#9;&#9;c-13.5,17.3-20.9,39.6-20.9,63C387.5,275.2,386.8,275.8,386,275.8C386,275.9,386,275.9,386,275.8L386,275.8z M314.8,272.8h69.6&#10;&#9;&#9;c0.3-23.4,7.9-45.9,21.6-63.3c9.8-12.5,15.1-28,15-43.8c-0.1-39.4-32.1-71.3-71.5-71.2s-71.3,32.1-71.2,71.5&#10;&#9;&#9;c0,15.4,5.1,30.4,14.3,42.8C306.7,227.2,314.4,249.6,314.8,272.8L314.8,272.8z"/>
	<path class="st2_science-1-42" d="M309.1,294.5h79.1c2.5,0,4.6,2.1,4.6,4.6v11c0,2.6-2.1,4.6-4.6,4.6h-79.1c-2.6,0-4.6-2.1-4.6-4.6v-11&#10;&#9;&#9;C304.5,296.6,306.5,294.6,309.1,294.5z"/>
	<path class="st0_science-1-42" d="M384.3,316.3h-71.4c-5.5-0.1-9.9-4.5-10-10V303c0-5.5,4.5-10,10-10h71.4c5.5,0,10,4.5,10,10v3.3&#10;&#9;&#9;C394.3,311.8,389.9,316.3,384.3,316.3z M312.9,296.1c-3.8,0-6.9,3.1-6.9,6.9l0,0v3.3c0,3.8,3.1,6.9,6.9,6.9h71.4&#10;&#9;&#9;c3.8,0,6.9-3.1,6.9-6.9v-3.3c0-3.8-3.1-6.9-6.9-6.9H312.9z"/>
	<path class="st2_science-1-42" d="M309.1,274.4h79.1c2.6,0,4.6,2.1,4.6,4.6v11c0,2.5-2.1,4.6-4.6,4.6h-79.1c-2.5,0-4.6-2.1-4.6-4.6v-11&#10;&#9;&#9;C304.5,276.5,306.5,274.4,309.1,274.4z"/>
	<path class="st0_science-1-42" d="M384.3,296.1h-71.4c-5.5-0.1-9.9-4.5-10-10v-3.3c0.1-5.5,4.5-9.9,10-10h71.4c5.5,0,10,4.5,10,10v3.3&#10;&#9;&#9;C394.3,291.7,389.9,296.1,384.3,296.1z M312.9,275.9c-3.8,0-6.9,3.1-6.9,6.9l0,0v3.3c0,3.8,3.1,6.9,6.9,6.9h71.4&#10;&#9;&#9;c3.8,0,6.9-3.1,6.9-6.9v-3.3c0-3.8-3.1-6.9-6.9-6.9H312.9z"/>
	<path class="st2_science-1-42" d="M309.1,254.2h79.1c2.6,0,4.6,2.1,4.6,4.6v11c0,2.5-2.1,4.6-4.6,4.6h-79.1c-2.6,0-4.6-2.1-4.6-4.6v-11&#10;&#9;&#9;C304.4,256.3,306.5,254.3,309.1,254.2z"/>
	<path class="st0_science-1-42" d="M384.3,275.9h-71.4c-5.5-0.1-9.9-4.5-10-10v-3.2c0-5.5,4.5-10,10-10h71.4c5.5,0,10,4.5,10,10v3.3&#10;&#9;&#9;C394.3,271.5,389.8,275.9,384.3,275.9z M312.9,255.8c-3.8,0-6.9,3.1-6.9,6.9v3.3c0,3.8,3.1,6.9,6.9,6.9h71.4c3.8,0,6.9-3.1,6.9-6.9&#10;&#9;&#9;v-3.3c0-3.8-3.1-6.9-6.9-6.9L312.9,255.8z"/>
	<path class="st2_science-1-42" d="M330.3,249.4c-0.7,0-1.4-0.5-1.5-1.3l-17.5-92.8c-0.2-0.8,0.3-1.6,1.1-1.8c0,0,0,0,0.1,0c0.5-0.1,1,0,1.4,0.3&#10;&#9;&#9;l22.6,20.1l13.4-22.6c0.4-0.7,1.4-1,2.1-0.5c0.3,0.1,0.5,0.4,0.6,0.6l11.9,23.2l19.7-20.4c0.6-0.6,1.6-0.6,2.2,0&#10;&#9;&#9;c0.4,0.4,0.5,0.9,0.4,1.4l-15,92.6c-0.3,0.8-1.1,1.2-1.9,1c-0.6-0.2-1.1-0.8-1.1-1.5l0,0l14.2-87.8l-17.8,18.5&#10;&#9;&#9;c-0.4,0.3-0.9,0.5-1.4,0.4c-0.5-0.1-0.9-0.4-1.2-0.9L351,155.3l-12.9,21.8c-0.2,0.4-0.6,0.7-1.1,0.8c-0.4,0.1-0.9-0.1-1.3-0.3&#10;&#9;&#9;L315,159.2l16.7,88.4c0.2,0.8-0.3,1.6-1.1,1.7c0,0-0.1,0-0.1,0L330.3,249.4L330.3,249.4z"/>
</g>
<g id="network_science-1-42">
	<path class="st0_science-1-42" d="M260.9,236.9c-23.5,0-39-5.6-43.1-16.4c-6.2-16.6,16.4-41.8,58.8-65.9c0.8-0.3,1.7-0.1,2.1,0.7&#10;&#9;&#9;c0.3,0.7,0.1,1.5-0.6,1.9c-40.4,22.8-62.9,47.2-57.3,62.1c5.5,14.7,38,18.5,82.9,9.7c20.8-4.2,41.2-10,61-17.5&#10;&#9;&#9;c18.4-6.8,36.3-14.9,53.5-24.4c42.4-23.4,66.2-48.4,60.5-63.7c-5.4-14.4-35.9-18.4-79.6-10.3c-0.8,0.3-1.7-0.2-1.9-1&#10;&#9;&#9;c-0.3-0.8,0.2-1.7,1-1.9c0.2-0.1,0.3-0.1,0.5-0.1c45.9-8.5,77-3.9,83,12.2c6.3,17.1-17.4,43-61.9,67.5c-17.4,9.5-35.4,17.7-54,24.5&#10;&#9;&#9;c-19.9,7.5-40.5,13.4-61.4,17.6C287.9,235.3,273.3,236.9,260.9,236.9z"/>
	<path class="st0_science-1-42" d="M438.3,236.9c-12.5,0-27.1-1.6-43.5-4.8c-20.8-4.2-41.3-10.1-61.2-17.6c-18.6-6.8-36.6-15-54-24.5&#10;&#9;&#9;c-44.5-24.5-68.2-50.4-61.8-67.5c6-16.2,37.1-20.7,83.1-12.2c0.9,0,1.5,0.7,1.5,1.6c0,0.9-0.7,1.5-1.6,1.5c-0.2,0-0.3,0-0.5-0.1&#10;&#9;&#9;l0,0c-43.1-8-74.4-4-79.7,10.3c-5.7,15.3,18,40.4,60.4,63.7c17.2,9.4,35.1,17.6,53.5,24.4c19.7,7.4,40,13.2,60.7,17.4&#10;&#9;&#9;c45,8.9,77.6,5.1,83-9.6s-17-39.2-57.3-62c-0.8-0.4-1.1-1.3-0.7-2c0,0,0-0.1,0-0.1c0.3-0.7,1.2-1.1,2-0.8c0.1,0,0.1,0.1,0.2,0.1&#10;&#9;&#9;c0.1,0,0.1,0.1,0.2,0.1c42.4,24,64.9,49.1,58.8,65.8C477.4,231.2,461.8,236.9,438.3,236.9z"/>
	<circle class="st3_science-1-42" cx="237.1" cy="231.6" r="11.5"/>
	<path class="st0_science-1-42" d="M237.1,244.6c-7.2,0-13-5.9-12.9-13.1s5.9-13,13.1-12.9c7.2,0,12.9,5.8,12.9,13c0,7.2-5.7,13-12.9,13&#10;&#9;&#9;C237.2,244.6,237.1,244.6,237.1,244.6z M237.1,221.6c-5.5,0-9.9,4.5-9.9,9.9s4.5,9.9,9.9,9.9c5.5,0,9.9-4.5,9.9-9.9l0,0l0,0&#10;&#9;&#9;C247,226.1,242.6,221.6,237.1,221.6L237.1,221.6z"/>
	<circle class="st4_science-1-42" cx="450.3" cy="171.4" r="11.5"/>
	<path class="st0_science-1-42" d="M450.3,184.5c-7.2,0-13.1-5.9-13.1-13.1c0-7.2,5.9-13.1,13.1-13.1c7.2,0,13.1,5.9,13.1,13.1l0,0&#10;&#9;&#9;C463.3,178.7,457.5,184.5,450.3,184.5z M450.3,161.5c-5.5,0-9.9,4.5-9.9,10s4.5,9.9,10,9.9c5.5,0,9.9-4.5,9.9-9.9l0,0&#10;&#9;&#9;C460.2,166,455.8,161.5,450.3,161.5z"/>
	<circle class="st5_science-1-42" cx="272" cy="104.3" r="11.5"/>
	<path class="st0_science-1-42" d="M272,117.3c-7.2,0-13.1-5.9-13.1-13.1c0-7.2,5.9-13.1,13.1-13.1c7.2,0,13.1,5.9,13.1,13.1l0,0&#10;&#9;&#9;C285,111.4,279.2,117.3,272,117.3z M272,94.2c-5.5,0-9.9,4.5-9.9,10c0,5.5,4.5,9.9,10,9.9c5.5,0,9.9-4.5,9.9-10c0,0,0,0,0,0&#10;&#9;&#9;C282,98.7,277.5,94.3,272,94.2z"/>
</g>
<g id="lines_science-1-42">
	<path class="st6_science-1-42" d="M248.5,279.4c-0.8,0-1.5-0.7-1.5-1.5c0,0,0,0,0,0V268c-0.1-0.8,0.4-1.6,1.3-1.7c0.8-0.1,1.6,0.4,1.7,1.3&#10;&#9;&#9;c0,0.2,0,0.3,0,0.5v9.9C250,278.7,249.3,279.3,248.5,279.4z"/>
	<path class="st6_science-1-42" d="M248.5,301c-0.8,0-1.5-0.7-1.5-1.5c0,0,0,0,0,0l0,0v-9.9c-0.1-0.8,0.4-1.6,1.3-1.7c0.8-0.1,1.6,0.4,1.7,1.3&#10;&#9;&#9;c0,0.2,0,0.3,0,0.5v9.9c0,0.8-0.6,1.5-1.4,1.5C248.6,301,248.5,301,248.5,301L248.5,301z"/>
	<path class="st6_science-1-42" d="M264.4,285.3h-9.9c-0.8,0.1-1.6-0.4-1.7-1.3c-0.1-0.8,0.4-1.6,1.3-1.7c0.2,0,0.3,0,0.5,0h9.9&#10;&#9;&#9;c0.8,0.1,1.4,0.9,1.3,1.7C265.5,284.6,265,285.2,264.4,285.3z"/>
	<path class="st6_science-1-42" d="M242.6,285.3h-9.9c-0.8,0.1-1.6-0.4-1.7-1.3c-0.1-0.8,0.4-1.6,1.3-1.7c0.2,0,0.3,0,0.5,0h9.9&#10;&#9;&#9;c0.8-0.1,1.6,0.4,1.7,1.3c0.1,0.8-0.4,1.6-1.3,1.7C242.9,285.3,242.8,285.3,242.6,285.3z"/>
	<path class="st6_science-1-42" d="M414.5,72.5c-0.8,0-1.5-0.6-1.5-1.5c0,0,0,0,0,0V61c-0.1-0.8,0.4-1.6,1.3-1.7c0.8-0.1,1.6,0.4,1.7,1.3&#10;&#9;&#9;c0,0.2,0,0.3,0,0.5v9.9C416,71.7,415.4,72.4,414.5,72.5C414.5,72.5,414.5,72.5,414.5,72.5L414.5,72.5z"/>
	<path class="st6_science-1-42" d="M414.5,94.1c-0.8,0-1.5-0.7-1.5-1.5c0,0,0,0,0,0v-9.9c-0.1-0.8,0.4-1.6,1.3-1.7c0.8-0.1,1.6,0.4,1.7,1.3&#10;&#9;&#9;c0,0.2,0,0.3,0,0.5v9.9C416,93.4,415.3,94.1,414.5,94.1C414.5,94.1,414.5,94.1,414.5,94.1L414.5,94.1z"/>
	<path class="st6_science-1-42" d="M430.3,78.4h-9.9c-0.8,0.1-1.6-0.4-1.7-1.3c-0.1-0.8,0.4-1.6,1.3-1.7c0.2,0,0.3,0,0.5,0h9.9&#10;&#9;&#9;c0.8,0,1.5,0.7,1.5,1.5c0,0.8-0.6,1.5-1.4,1.5C430.4,78.4,430.3,78.4,430.3,78.4L430.3,78.4z"/>
	<path class="st6_science-1-42" d="M408.6,78.4h-9.9c-0.8,0.1-1.6-0.4-1.7-1.3c-0.1-0.8,0.4-1.6,1.3-1.7c0.2,0,0.3,0,0.5,0h9.9&#10;&#9;&#9;c0.8,0.1,1.4,0.9,1.3,1.7C409.8,77.8,409.3,78.3,408.6,78.4z"/>
	<path class="st6_science-1-42" d="M441.1,266.1c-0.8,0-1.5-0.7-1.5-1.5v-8.2c0.1-0.8,0.9-1.4,1.7-1.3c0.6,0.1,1.1,0.6,1.3,1.3v8.2&#10;&#9;&#9;C442.6,265.4,441.9,266.1,441.1,266.1C441.1,266.1,441,266.1,441.1,266.1L441.1,266.1z"/>
	<path class="st6_science-1-42" d="M441.1,284.2c-0.8,0-1.5-0.7-1.5-1.5l0,0v-8.2c0.1-0.8,0.9-1.4,1.7-1.3c0.6,0.1,1.1,0.6,1.3,1.3v8.2&#10;&#9;&#9;C442.5,283.5,441.9,284.1,441.1,284.2L441.1,284.2z"/>
	<path class="st6_science-1-42" d="M454.1,271H446c-0.8-0.1-1.4-0.9-1.3-1.7c0.1-0.6,0.6-1.1,1.3-1.3h8.2c0.8-0.1,1.6,0.4,1.7,1.3&#10;&#9;&#9;c0.1,0.8-0.4,1.6-1.3,1.7C454.5,271,454.3,271,454.1,271L454.1,271z"/>
	<path class="st6_science-1-42" d="M436.2,271H428c-0.8-0.1-1.4-0.9-1.3-1.7c0.1-0.6,0.6-1.1,1.3-1.3h8.2c0.8-0.1,1.6,0.4,1.7,1.3&#10;&#9;&#9;c0.1,0.8-0.4,1.6-1.3,1.7C436.5,271,436.3,271,436.2,271L436.2,271z"/>
</g>
<g id="character_science-1-42">
	<g id="character-2_science-1-42">
		<path class="st7_science-1-42" d="M223.8,381.2c1.1-2.7,2-5.4,2.6-8.2c0.3-1.6,0.3-3.3-0.2-4.9c0-0.1,0-0.2,0-0.3l4.7,1.3l23.6,6.7l8.2,2.4&#10;&#9;&#9;&#9;c0,0,10.7-6,20.2-8.8s10.4,3.1,6.2,5.1c-7,3.3-9.2,5.2-9.2,5.2c6.1-0.9,19.9,2.4,20.8,5.8c0.3,1.4,5.6,14.5-7.2,17.2&#10;&#9;&#9;&#9;c-8.9,1.9-27.1-1.4-28.8-1.9l-43.2-12.3C222.3,386,223.1,383.6,223.8,381.2z"/>
		<path class="st0_science-1-42" d="M264.2,403.3l-43.4-12.4c-0.7-0.2-1.2-0.6-1.6-1.3c-0.3-0.6-0.4-1.3-0.2-2c0.7-2.1,1.5-4.6,2.2-7.1&#10;&#9;&#9;&#9;c0-0.1,0-0.2,0.1-0.2c1-2.5,1.9-5.1,2.4-7.8c0.3-1.2,0.2-2.5-0.2-3.7c-0.1-0.3-0.1-0.6-0.1-0.8v-0.3c0.1-1.4,1.3-2.6,2.7-2.5&#10;&#9;&#9;&#9;c0.2,0,0.4,0,0.6,0.1l35.5,10.1c6.3-3.4,12.9-6.3,19.8-8.5c8.8-2.6,11.1,1.4,11.6,2.7c1,2.7-0.5,5.8-3.5,7.2l-1.5,0.7&#10;&#9;&#9;&#9;c6.5,1.1,13.6,3.5,14.5,7.3l0.1,0.4c0.7,2.2,2.8,8.8-0.3,14.1c-1.7,3-4.8,5-9,5.8c-2.4,0.5-4.9,0.7-7.4,0.6&#10;&#9;&#9;&#9;C279,405.6,271.6,404.8,264.2,403.3z M298.2,386.3c-1.3-1.8-12.4-5-18-4.1c-1.4,0.2-2.7-0.8-2.9-2.2c-0.1-0.9,0.2-1.7,0.9-2.3&#10;&#9;&#9;&#9;c0.2-0.2,2.7-2.2,9.8-5.5c0.3-0.2,0.6-0.4,0.9-0.6c-0.3-0.2-1.8-0.8-5.3,0.3c-9.1,2.7-19.6,8.6-19.7,8.6c-0.6,0.3-1.3,0.4-2,0.2&#10;&#9;&#9;&#9;l-32.8-9.4c0,0.7-0.1,1.5-0.3,2.2c-0.6,2.9-1.5,5.8-2.7,8.5c-0.4,1.6-0.9,3.2-1.4,4.7l40.6,11.6c1.8,0.5,19.4,3.6,27.5,1.9&#10;&#9;&#9;&#9;c2.8-0.6,4.6-1.7,5.6-3.4c1.9-3.3,0.4-8.3-0.1-9.9C298.2,386.6,298.2,386.4,298.2,386.3L298.2,386.3z"/>
		<path class="st0_science-1-42" d="M274.3,393.1c0.3,0,0.5,0,0.8-0.1c3-0.7,5.5-2.7,6.9-5.4c1.2-2.8,1.3-6,0.3-8.8c-0.5-1.3-2-2-3.4-1.4&#10;&#9;&#9;&#9;c-1.3,0.5-1.9,1.9-1.5,3.2c0.5,1.6,0.5,3.2-0.1,4.8c-0.8,1.4-2.2,2.4-3.8,2.7c-1.4,0.4-2.1,1.9-1.7,3.2&#10;&#9;&#9;&#9;C272.2,392.3,273.2,393.1,274.3,393.1L274.3,393.1z"/>
		<path class="st2_science-1-42" d="M37.7,336.4c15-32.8,38.6-49,50-54s22.8-7.9,46.9-7.9c25.9,0,39.3,6.1,49.4,21.1c16,23.8,10.6,42.3,43.9,67.5&#10;&#9;&#9;&#9;c-2.9,7-5.1,14.2-7.4,21.5c-0.5,1.7-1.1,3.3-1.7,5c-10.8-6.5-29.7-19.2-43.4-35.4l-2.5,11.8v14.6H88V320&#10;&#9;&#9;&#9;c-9.7,7.8-17.5,17.7-22.8,29c-4.1,9.3-7.3,18.9-9.7,28.8l-29.3-7.5C29.1,358.7,32.9,347.4,37.7,336.4z"/>
		<rect x="124.8" y="283.5" class="st1_science-1-42 targetColor" width="20.3" height="132.4" style="fill: rgb(253, 220, 104);"/>
		<path class="st0_science-1-42" d="M147.2,418h-24.3V281.5h24.3V418z M126.8,414h16.3V285.5h-16.3V414z"/>
		<path class="st0_science-1-42" d="M217.5,391.8c-9.6-5.8-26.9-17.2-40.6-32.1l-1.4,6.6v14.3c0,1.4-1.2,2.6-2.6,2.6H88c-1.4,0-2.6-1.2-2.6-2.6&#10;&#9;&#9;&#9;v-54.9c-7.5,6.9-13.5,15.2-17.8,24.4c-4,9.2-7.2,18.7-9.5,28.4c-0.4,1.4-1.8,2.2-3.1,1.9l-29.3-7.5c-1.4-0.4-2.2-1.8-1.9-3.1&#10;&#9;&#9;&#9;c2.9-11.7,6.8-23.2,11.6-34.3l0,0c13.9-30.4,36.3-48.8,51.3-55.3c11.7-5.1,23.4-8.1,47.9-8.1c26.3,0,40.8,6.2,51.5,22.2&#10;&#9;&#9;&#9;c5.7,8.5,8.8,16.4,11.7,24c5.4,13.9,10.5,26.9,31.6,42.9c0.9,0.7,1.3,1.9,0.8,3c-2.4,5.9-4.4,12-6.4,18.3l-0.9,3&#10;&#9;&#9;&#9;c-0.4,1.2-0.8,2.4-1.2,3.6l-0.5,1.4c-0.3,0.7-0.8,1.3-1.6,1.6c-0.3,0.1-0.6,0.1-0.9,0.1C218.3,392.1,217.9,392,217.5,391.8z&#10;&#9;&#9;&#9; M193,320c-2.9-7.3-5.8-14.9-11.2-23c-9.8-14.5-22.6-19.9-47.2-19.9c-23.7,0-34.8,2.8-45.9,7.6c-3.1,1.5-31.2,14.6-48.7,52.8l0,0&#10;&#9;&#9;&#9;c-4.4,10-8,20.3-10.7,30.9l24.3,6.2c2.3-9.1,5.4-18.1,9.2-26.7c5.4-11.6,13.5-21.9,23.5-29.9c1.1-0.9,2.7-0.7,3.6,0.4&#10;&#9;&#9;&#9;c0.4,0.5,0.6,1,0.6,1.6v58h79.8v-12c0-0.2,0-0.4,0-0.5l2.5-11.9c0.3-1.4,1.7-2.3,3.1-2c0.6,0.1,1.1,0.4,1.4,0.8&#10;&#9;&#9;&#9;c12.5,14.8,29.5,26.6,40,33.2c0.2-0.6,0.4-1.3,0.6-1.9l0.9-2.9c1.8-5.6,3.6-11.3,5.8-16.9C203.8,347.7,198.3,333.6,193,320z"/>
		<polygon class="st0_science-1-42" points="77.4,439.6 88,380.6 172.9,380.6 179.8,439.6 &#9;&#9;"/>
		<path class="st0_science-1-42" d="M75.5,441.3c-0.5-0.6-0.7-1.4-0.6-2.1l10.6-59c0.2-1.2,1.3-2.2,2.5-2.2h84.9c1.3,0,2.4,1,2.6,2.3l6.8,59&#10;&#9;&#9;&#9;c0.2,1.4-0.9,2.7-2.3,2.9c-0.1,0-0.2,0-0.3,0H77.4C76.7,442.2,76,441.9,75.5,441.3z M170.6,383.2H90.2l-9.6,53.9h96.3L170.6,383.2&#10;&#9;&#9;&#9;z"/>
		<polyline class="st2_science-1-42" points="124.8,372.1 124.8,440.5 74.2,440.5 88,378 &#9;&#9;"/>
		<path class="st0_science-1-42" d="M126.8,442.5H71.8L86,377.6c0.2-1.1,1.2-1.8,2.3-1.7c1.1,0.2,1.8,1.2,1.7,2.3c0,0.1,0,0.1,0,0.2l-13.2,60&#10;&#9;&#9;&#9;h46.1v-66.4c0-1.1,0.9-2,2-2s2,0.9,2,2L126.8,442.5z"/>
		<path class="st7_science-1-42" d="M49.4,363.3c-6.3,3.6-12.6,7.4-18.8,11.1C40.8,393.2,54,418,58.3,424.8C64.1,434,70,442,73.6,443&#10;&#9;&#9;&#9;s12.8-5.7,14.4-8s-8.6-11.9-8.6-11.9l6.4-3.6c-0.3-2.4-11.2-8.2-11.2-8.2C74.2,410.3,60,383,49.4,363.3z"/>
		<path class="st0_science-1-42" d="M73,445.5c-2.7-0.7-6.8-3.5-16.8-19.3c-3.2-5.1-11-19.5-19.3-34.8c-2.9-5.4-5.8-10.8-8.5-15.7&#10;&#9;&#9;&#9;c-0.7-1.2-0.2-2.7,0.9-3.4c6-3.7,12.4-7.5,18.9-11.2c1.2-0.7,2.8-0.3,3.5,0.9c0,0,0,0,0,0.1c9.4,17.4,22.3,42.2,24.8,47.3&#10;&#9;&#9;&#9;c11.4,6.1,11.7,8.8,11.8,9.7c0.1,1-0.4,2.1-1.3,2.6l-3.3,1.9c9.1,9.1,7.2,11.8,6.4,12.9c-1.8,2.5-10.4,9.1-15.9,9.1&#10;&#9;&#9;&#9;C73.9,445.6,73.4,445.6,73,445.5z M77.7,425c-0.6-0.6-0.9-1.4-0.8-2.2c0.1-0.8,0.6-1.5,1.3-2l3.6-2c-2.7-1.9-5.5-3.7-8.4-5.2&#10;&#9;&#9;&#9;c-0.5-0.3-0.9-0.7-1.2-1.3c-0.6-1.3-13.2-25.6-23.8-45.4c-4.8,2.8-9.7,5.7-14.3,8.5c2.4,4.4,4.8,9,7.3,13.6&#10;&#9;&#9;&#9;c7.8,14.5,15.9,29.5,19.1,34.5c9.2,14.5,12.7,16.7,13.8,17c1.9,0.4,9-4.2,11.3-6.5C84.8,432.3,81.3,428.3,77.7,425z M74.6,411.3&#10;&#9;&#9;&#9;L74.6,411.3z"/>
		<path class="st8_science-1-42" d="M100.6,116c0,0-43.2-2.3-49.7,38.7c-4.3,27.4-6,54.5-15,81.1c26.3,22.8,63.4,32.2,97.7,26.3&#10;&#9;&#9;&#9;s65.6-26.6,85.9-54.9c-9.6-20.9-16.6-42.9-20.9-65.5c-3-15.9-8.2-25.5-22.9-33.9c-12.6-7.1-27.1-10.3-41.5-9.2&#10;&#9;&#9;&#9;c-6.8,0.5-13.5,2.3-19.6,5.3C112.1,105.1,101.5,116.1,100.6,116z"/>
		<path class="st0_science-1-42" d="M34.2,237.8c-0.8-0.7-1.1-1.8-0.8-2.8c6.6-19.5,9.2-38.9,11.9-59.5c0.9-6.9,1.9-14.1,3-21.2&#10;&#9;&#9;&#9;c6.2-39.1,44.4-40.9,51.3-40.9h0.2c1-0.8,3.4-3,5.1-4.7c4.2-4,6.9-6.5,8.4-7.2c6.4-3.2,13.4-5.1,20.6-5.5c15-1.1,29.9,2.2,43,9.6&#10;&#9;&#9;&#9;c16.4,9.3,21.2,20.1,24.2,35.7c4.3,22.4,11.2,44.2,20.7,64.9c0.4,0.8,0.3,1.8-0.2,2.6c-21.2,29.6-53.1,50-87.5,56&#10;&#9;&#9;&#9;c-7,1.2-14,1.8-21.1,1.8C84,266.4,55.6,256.3,34.2,237.8z M196,142.2c-2.7-14.4-6.9-23.8-21.6-32.2c-12.2-6.8-26.1-9.9-40-8.9&#10;&#9;&#9;&#9;c-6.5,0.4-12.8,2.1-18.6,5c-1,0.5-4.9,4.2-7.2,6.4c-5.9,5.6-6.6,6.1-8.1,6.1l0,0c-7.3-0.1-14.6,1.2-21.5,3.9&#10;&#9;&#9;&#9;c-14.4,5.7-23,16.7-25.5,32.6c-1.1,7-2.1,14.2-3,21.1c-2.6,19.4-5.3,39.4-11.6,58.8c25.3,21.2,60.4,30.4,94.2,24.6&#10;&#9;&#9;&#9;c32.6-5.6,62.9-24.8,83.3-52.7C207.1,186.2,200.3,164.5,196,142.2z M100.5,116L100.5,116z M100.7,113.4L100.7,113.4z"/>
		<path class="st2_science-1-42" d="M228.4,357.9l11.2,6.6c1,0.6,1.3,1.8,0.7,2.8l-16.2,27.4c-0.6,1-1.8,1.3-2.8,0.7l-11.2-6.6&#10;&#9;&#9;&#9;c-1-0.6-1.3-1.8-0.7-2.8l16.2-27.4C226.2,357.6,227.4,357.3,228.4,357.9z"/>
		<path class="st0_science-1-42" d="M217.3,396l-5.7-3.4c-3.7-2.2-4.9-7-2.7-10.7l12.9-21.9c2.2-3.7,7-4.9,10.7-2.7l5.7,3.4&#10;&#9;&#9;&#9;c3.7,2.2,4.9,7,2.7,10.7L228,393.2c-1,1.8-2.8,3.1-4.8,3.6c-0.6,0.2-1.3,0.2-1.9,0.2C219.9,397.1,218.5,396.7,217.3,396z&#10;&#9;&#9;&#9; M227.8,361.5c-0.7,0.2-1.3,0.6-1.6,1.2l-12.9,21.9c-0.7,1.3-0.3,2.9,0.9,3.6l0,0l5.7,3.4c1.3,0.7,2.9,0.3,3.6-0.9l12.9-21.9&#10;&#9;&#9;&#9;c0.7-1.3,0.3-2.9-0.9-3.6l-5.7-3.4c-0.4-0.2-0.9-0.4-1.3-0.4C228.3,361.4,228,361.4,227.8,361.5L227.8,361.5z"/>
		<path class="st7_science-1-42" d="M124.8,265.8h20.3l0,0v17c0,1.9-1.5,3.4-3.3,3.4h0h-13.6c-1.9,0-3.3-1.5-3.3-3.4l0,0L124.8,265.8L124.8,265.8&#10;&#9;&#9;&#9;L124.8,265.8z"/>
		<path class="st0_science-1-42" d="M122.2,277.5v-11.7c0-1.4,1.2-2.6,2.6-2.6h20.3c1.4,0,2.6,1.2,2.6,2.6v11.7c0,6.2-5,11.2-11.2,11.2h-3.1&#10;&#9;&#9;&#9;C127.3,288.7,122.3,283.7,122.2,277.5z M127.4,268.3v9.1c0,3.3,2.7,6,6.1,6h3.1c3.3,0,6-2.7,6.1-6v-9.1H127.4z"/>
		<ellipse class="st7_science-1-42" cx="187.7" cy="215" rx="15.2" ry="17"/>
		<path class="st0_science-1-42" d="M169.9,215c0-10.8,8-19.6,17.8-19.6s17.8,8.8,17.8,19.6s-8,19.6-17.8,19.6S169.9,225.9,169.9,215z M175,215&#10;&#9;&#9;&#9;c0,8,5.7,14.4,12.7,14.4s12.7-6.4,12.7-14.4s-5.7-14.4-12.7-14.4S175,207.1,175,215L175,215z"/>
		<path class="st7_science-1-42" d="M134.4,270.5c-33.4,0-63.4-41.3-63.4-74.2l8,3c0,0,41.6-34.3,36.1-53.8c0,0,12.3,14.6,30,14.6&#10;&#9;&#9;&#9;c32.5-0.1,45.2-8.7,45.2-8.7v59.5C190.2,243.9,167.8,270.5,134.4,270.5z"/>
		<path class="st0_science-1-42" d="M68.4,196.4c0-1.4,1.2-2.6,2.6-2.6c0.3,0,0.6,0.1,0.9,0.2l6.6,2.5c11.9-10,38.2-36,34.1-50.2&#10;&#9;&#9;&#9;c-0.4-1.4,0.4-2.8,1.8-3.2c1-0.3,2,0,2.7,0.8c0.1,0.1,11.8,13.6,27.9,13.6h0.1c31.1-0.1,43.6-8.2,43.8-8.2&#10;&#9;&#9;&#9;c1.2-0.8,2.8-0.5,3.6,0.7c0.3,0.4,0.4,0.9,0.4,1.4v59.5c0,36-24.6,62.2-58.4,62.2C99.5,273.1,68.4,230.2,68.4,196.4z M145,162.7&#10;&#9;&#9;&#9;L145,162.7c-12.1,0-21.6-6.2-27.1-10.7c-1,8-6.7,17.9-17,29.5c-6.3,7.1-13.1,13.8-20.4,19.9c-0.7,0.6-1.7,0.8-2.6,0.4l-4.3-1.6&#10;&#9;&#9;&#9;c2.2,36.3,34.8,67.8,60.7,67.8c30.9,0,53.2-24,53.2-57v-55.3C181.5,158.3,168.1,162.6,145,162.7z"/>
		<ellipse class="st0_science-1-42" cx="127" cy="200.6" rx="5.5" ry="5.5"/>
		<circle class="st0_science-1-42" cx="168.9" cy="199.9" r="5.5"/>
		<path class="st0_science-1-42" d="M140.4,220.5c-1.4-0.2-2.3-1.6-2.1-3s1.6-2.3,3-2.1c2.4,0.4,4.8,0.5,7.2,0.2c-0.2-2.1-2.1-7.2-4.6-11.9&#10;&#9;&#9;&#9;c-0.7-1.3-0.2-2.8,1.1-3.5s2.8-0.2,3.5,1.1c2.5,4.7,6.4,13.2,4.7,17c-0.5,1.1-1.4,1.9-2.6,2.2c-1.5,0.3-3.1,0.5-4.7,0.5&#10;&#9;&#9;&#9;C144.1,221,142.2,220.8,140.4,220.5z M148.4,216.3L148.4,216.3z"/>
		<path class="st7_science-1-42" d="M83,200.6c0,0-14.6-10.1-22.4,2.9s-0.3,35.1,23.8,28.6"/>
		<path class="st0_science-1-42" d="M76.3,235.8c2.9,0,5.8-0.4,8.7-1.2c1.4-0.4,2.2-1.8,1.8-3.2c-0.4-1.4-1.8-2.2-3.2-1.8&#10;&#9;&#9;&#9;c-8.9,2.4-16.1,0.7-20.2-4.8s-4.4-13.9-0.7-20c1.7-2.9,3.9-4.6,6.6-5.2c5.8-1.2,12.1,3,12.1,3.1c1.2,0.8,2.8,0.5,3.6-0.7&#10;&#9;&#9;&#9;c0.8-1.2,0.5-2.8-0.7-3.6c-0.3-0.2-8.1-5.6-16.1-3.9c-4.1,0.9-7.5,3.4-10,7.5c-4.8,8-4.4,18.6,1,25.8&#10;&#9;&#9;&#9;C63.2,233.1,69.2,235.8,76.3,235.8z"/>
		<path class="st2_science-1-42" d="M65.1,363.9l1.1,12.6c0.1,1.2-0.8,2.3-2,2.4l-37.7,3.4c-1.2,0.1-2.3-0.8-2.4-2l-1.1-12.6&#10;&#9;&#9;&#9;c-0.1-1.2,0.8-2.3,2-2.4l37.7-3.4C63.9,361.8,65,362.7,65.1,363.9z"/>
		<path class="st0_science-1-42" d="M21.2,377l-0.5-5.7c-0.4-4.5,2.9-8.5,7.5-8.9c0,0,0,0,0,0l30.8-2.7c4.5-0.4,8.6,2.9,9,7.5c0,0,0,0,0,0&#10;&#9;&#9;&#9;l0.5,5.7c0.4,4.5-2.9,8.5-7.5,8.9c0,0,0,0,0,0l-30.8,2.7c-0.2,0-0.5,0-0.7,0C25.2,384.5,21.6,381.3,21.2,377z M59.5,364.8&#10;&#9;&#9;&#9;l-30.8,2.7c-1.7,0.1-3,1.6-2.8,3.3c0,0,0,0,0,0l0,0l0.5,5.7c0.1,0.8,0.5,1.6,1.1,2.1c0.6,0.5,1.4,0.8,2.3,0.7l30.8-2.7&#10;&#9;&#9;&#9;c1.7-0.1,2.9-1.6,2.8-3.3c0,0,0,0,0,0l-0.5-5.7c-0.1-0.8-0.5-1.6-1.1-2.1c-0.6-0.5-1.3-0.7-2-0.7L59.5,364.8z"/>
		<path class="st2_science-1-42" d="M153.8,229l-23.2,1.1c0,0,2,23.8,10.3,26.1C149.2,258.5,154.8,243.1,153.8,229z"/>
		<path class="st0_science-1-42" d="M140.2,258.7c-9.6-2.6-11.9-24.1-12.2-28.3c-0.1-0.7,0.2-1.4,0.6-1.9c0.5-0.5,1.1-0.8,1.8-0.9l23.2-1.1&#10;&#9;&#9;&#9;c1.4-0.1,2.6,1,2.7,2.4c0.9,11.6-2.5,23.4-8,28C146.1,258.8,143.1,259.5,140.2,258.7L140.2,258.7z M133.4,232.6&#10;&#9;&#9;&#9;c1.1,8.7,4.1,20,8.2,21.1c1.2,0.3,2.6,0,3.5-0.9c3.8-3.2,6.4-12.1,6.3-21.1L133.4,232.6z"/>
		<path class="st0_science-1-42" d="M175.4,356.7c1,0,2-0.6,2.4-1.6c9.9-23-3.4-49.3-4-50.4c-0.7-1.3-2.2-1.8-3.5-1.1c-1.3,0.7-1.8,2.2-1.1,3.5&#10;&#9;&#9;&#9;c0.1,0.2,12.7,25.3,3.8,46c-0.6,1.3,0,2.8,1.3,3.4c0,0,0,0,0,0C174.7,356.7,175,356.7,175.4,356.7z"/>
	</g>
	<polyline class="st2_science-1-42" points="145.2,376.6 145.2,440.5 179.8,440.5 172.9,378 &#9;"/>
	<path class="st0_science-1-42" d="M182,442.5h-38.8v-65.9c0-1.1,0.9-2,2-2s2,0.9,2,2v61.9h30.4l-6.6-60.2c-0.1-1.1,0.7-2.1,1.8-2.2&#10;&#9;&#9;s2.1,0.7,2.2,1.8L182,442.5z"/>
	<path class="st0_science-1-42" d="M122.2,222.4c-12.4,0-22.4-10.1-22.4-22.5c0-12.4,10.1-22.4,22.5-22.4c12.4,0,22.4,10.1,22.4,22.5c0,0,0,0,0,0&#10;&#9;&#9;C144.7,212.4,134.6,222.4,122.2,222.4z M122.2,181.5c-10.2,0-18.4,8.3-18.4,18.5c0,10.2,8.3,18.4,18.5,18.4&#10;&#9;&#9;c10.2,0,18.4-8.2,18.4-18.4C140.7,189.8,132.5,181.5,122.2,181.5C122.3,181.5,122.3,181.5,122.2,181.5z"/>
	<path class="st0_science-1-42" d="M169.9,222.4c-12.4,0-22.4-10.1-22.4-22.5c0-12.4,10.1-22.4,22.5-22.4c12.4,0,22.4,10.1,22.4,22.5c0,0,0,0,0,0&#10;&#9;&#9;C192.3,212.4,182.2,222.4,169.9,222.4z M169.9,181.5c-10.2,0-18.4,8.3-18.4,18.5c0,10.2,8.3,18.4,18.5,18.4&#10;&#9;&#9;c10.2,0,18.4-8.2,18.4-18.4C188.3,189.8,180.1,181.5,169.9,181.5C169.9,181.5,169.9,181.5,169.9,181.5z"/>
</g>
</svg>