<?xml version="1.0" standalone="no"?>
<svg xmlns:xlink="http://www.w3.org/1999/xlink" id="wave" style="transform:rotate(0deg); transition: 0.3s" viewBox="0 0 1440 270" version="1.1" xmlns="http://www.w3.org/2000/svg"><defs><linearGradient id="sw-gradient-0" x1="0" x2="0" y1="1" y2="0"><stop stop-color="rgba(246, 246, 246, 1)" offset="0%"/><stop stop-color="rgba(246, 246, 246, 1)" offset="100%"/></linearGradient></defs><path style="transform:translate(0, 0px); opacity:1" fill="url(#sw-gradient-0)" d="M0,81L48,103.5C96,126,192,171,288,189C384,207,480,198,576,166.5C672,135,768,81,864,90C960,99,1056,171,1152,198C1248,225,1344,207,1440,175.5C1536,144,1632,99,1728,94.5C1824,90,1920,126,2016,148.5C2112,171,2208,180,2304,193.5C2400,207,2496,225,2592,234C2688,243,2784,243,2880,216C2976,189,3072,135,3168,112.5C3264,90,3360,99,3456,121.5C3552,144,3648,180,3744,166.5C3840,153,3936,90,4032,90C4128,90,4224,153,4320,153C4416,153,4512,90,4608,54C4704,18,4800,9,4896,27C4992,45,5088,90,5184,126C5280,162,5376,189,5472,193.5C5568,198,5664,180,5760,171C5856,162,5952,162,6048,139.5C6144,117,6240,72,6336,54C6432,36,6528,45,6624,49.5C6720,54,6816,54,6864,54L6912,54L6912,270L6864,270C6816,270,6720,270,6624,270C6528,270,6432,270,6336,270C6240,270,6144,270,6048,270C5952,270,5856,270,5760,270C5664,270,5568,270,5472,270C5376,270,5280,270,5184,270C5088,270,4992,270,4896,270C4800,270,4704,270,4608,270C4512,270,4416,270,4320,270C4224,270,4128,270,4032,270C3936,270,3840,270,3744,270C3648,270,3552,270,3456,270C3360,270,3264,270,3168,270C3072,270,2976,270,2880,270C2784,270,2688,270,2592,270C2496,270,2400,270,2304,270C2208,270,2112,270,2016,270C1920,270,1824,270,1728,270C1632,270,1536,270,1440,270C1344,270,1248,270,1152,270C1056,270,960,270,864,270C768,270,672,270,576,270C480,270,384,270,288,270C192,270,96,270,48,270L0,270Z"/></svg>