<?xml version="1.0" standalone="no"?>
<svg xmlns:xlink="http://www.w3.org/1999/xlink" id="wave" style="transform:rotate(180deg); transition: 0.3s" viewBox="0 0 1440 270" version="1.1" xmlns="http://www.w3.org/2000/svg"><defs><linearGradient id="sw-gradient-0" x1="0" x2="0" y1="1" y2="0"><stop stop-color="rgba(246, 246, 246, 1)" offset="0%"/><stop stop-color="rgba(246, 246, 246, 1)" offset="100%"/></linearGradient></defs><path style="transform:translate(0, 0px); opacity:1" fill="url(#sw-gradient-0)" d="M0,162L48,144C96,126,192,90,288,67.5C384,45,480,36,576,54C672,72,768,117,864,139.5C960,162,1056,162,1152,139.5C1248,117,1344,72,1440,85.5C1536,99,1632,171,1728,207C1824,243,1920,243,2016,225C2112,207,2208,171,2304,135C2400,99,2496,63,2592,81C2688,99,2784,171,2880,184.5C2976,198,3072,153,3168,117C3264,81,3360,54,3456,54C3552,54,3648,81,3744,90C3840,99,3936,90,4032,103.5C4128,117,4224,153,4320,171C4416,189,4512,189,4608,171C4704,153,4800,117,4896,126C4992,135,5088,189,5184,216C5280,243,5376,243,5472,202.5C5568,162,5664,81,5760,72C5856,63,5952,126,6048,153C6144,180,6240,171,6336,148.5C6432,126,6528,90,6624,76.5C6720,63,6816,72,6864,76.5L6912,81L6912,270L6864,270C6816,270,6720,270,6624,270C6528,270,6432,270,6336,270C6240,270,6144,270,6048,270C5952,270,5856,270,5760,270C5664,270,5568,270,5472,270C5376,270,5280,270,5184,270C5088,270,4992,270,4896,270C4800,270,4704,270,4608,270C4512,270,4416,270,4320,270C4224,270,4128,270,4032,270C3936,270,3840,270,3744,270C3648,270,3552,270,3456,270C3360,270,3264,270,3168,270C3072,270,2976,270,2880,270C2784,270,2688,270,2592,270C2496,270,2400,270,2304,270C2208,270,2112,270,2016,270C1920,270,1824,270,1728,270C1632,270,1536,270,1440,270C1344,270,1248,270,1152,270C1056,270,960,270,864,270C768,270,672,270,576,270C480,270,384,270,288,270C192,270,96,270,48,270L0,270Z"/></svg>